<svg viewBox="0 0 32 32" fill="none" xmlns="http://www.w3.org/2000/svg">
<path fill-rule="evenodd" clip-rule="evenodd" d="M9.33333 12C9.06966 12.0001 8.81193 12.0783 8.59272 12.2248C8.37351 12.3713 8.20265 12.5795 8.10176 12.8231C8.00087 13.0667 7.97446 13.3348 8.02589 13.5934C8.07731 13.852 8.20425 14.0895 8.39067 14.276L15.0573 20.9427C15.3074 21.1926 15.6464 21.333 16 21.333C16.3535 21.333 16.6926 21.1926 16.9427 20.9427L23.6093 14.276C23.7957 14.0895 23.9227 13.852 23.9741 13.5934C24.0255 13.3348 23.9991 13.0667 23.8982 12.8231C23.7973 12.5795 23.6265 12.3713 23.4073 12.2248C23.1881 12.0783 22.9303 12.0001 22.6667 12H9.33333Z" fill="#535657"/>
</svg>