<svg width="24" height="24" viewBox="0 0 24 24" fill="none" xmlns="http://www.w3.org/2000/svg">
<path fill-rule="evenodd" clip-rule="evenodd" d="M21.56 5.24C21.8409 5.52125 21.9987 5.9025 21.9987 6.3C21.9987 6.6975 21.8409 7.07875 21.56 7.36L9.36598 19.554C9.22521 19.6946 9.05787 19.8059 8.87369 19.8812C8.68952 19.9565 8.49219 19.9944 8.29321 19.9928C8.09424 19.9911 7.89758 19.9498 7.7147 19.8714C7.53182 19.793 7.36637 19.679 7.22798 19.536L2.42198 14.568C2.1479 14.2816 1.99833 13.8984 2.00595 13.502C2.01358 13.1057 2.17777 12.7285 2.46266 12.4529C2.74755 12.1772 3.12996 12.0256 3.52633 12.031C3.9227 12.0365 4.3008 12.1986 4.57799 12.482L8.32399 16.354L19.44 5.24C19.7212 4.9591 20.1025 4.80132 20.5 4.80132C20.8975 4.80132 21.2787 4.9591 21.56 5.24Z" fill="#4F646F"/>
</svg>