<svg viewBox="0 0 34 34" fill="none" xmlns="http://www.w3.org/2000/svg">
<path d="M4.69495 33.0031V26.8506H10.8475" stroke="#535657" stroke-width="2" stroke-linecap="round" stroke-linejoin="round"/>
<path d="M32.7262 14.0667C33.379 17.5497 32.8569 21.1509 31.242 24.3052C29.627 27.4595 27.0106 29.9883 23.8031 31.495C20.5957 33.0016 16.9788 33.4007 13.5201 32.6298C10.0613 31.8588 6.95635 29.9613 4.69245 27.2351M1.27383 19.9463C0.621033 16.4633 1.14307 12.8621 2.75802 9.70785C4.37296 6.55357 6.98943 4.02471 10.1969 2.51807C13.4043 1.01143 17.0212 0.612282 20.4799 1.38326C23.9387 2.15424 27.0436 4.0517 29.3075 6.77793" stroke="#535657" stroke-width="2" stroke-linecap="round" stroke-linejoin="round"/>
<path d="M29.3051 1.00993V7.16247H23.1525M9.7807 17.8351C8.90991 17.6838 8.90991 16.4334 9.7807 16.2821C11.322 16.0125 12.7483 15.2907 13.8783 14.2084C15.0083 13.1261 15.7909 11.7322 16.1267 10.204L16.1788 9.96336C16.3674 9.1025 17.5929 9.09754 17.7889 9.95592L17.8534 10.2363C18.1999 11.7586 18.989 13.1444 20.1213 14.2193C21.2536 15.2942 22.6785 16.0102 24.2168 16.2771C25.0926 16.4285 25.0926 17.6863 24.2168 17.8401C22.6789 18.1069 21.2542 18.8225 20.1219 19.8969C18.9896 20.9714 18.2004 22.3566 17.8534 23.8785L17.7889 24.1564C17.5929 25.0147 16.3674 25.0098 16.1788 24.1489L16.1292 23.9108C15.7931 22.3818 15.0097 20.9875 13.8788 19.9051C12.7478 18.8228 11.3204 18.1013 9.77822 17.8326L9.7807 17.8351Z" stroke="#535657" stroke-width="2" stroke-linecap="round" stroke-linejoin="round"/>
</svg>