<svg viewBox="0 0 32 32" fill="none" xmlns="http://www.w3.org/2000/svg">
<path d="M9.90739 5.48506L6.09832 7.61814L8.2314 3.80907L6.09832 0L9.90739 2.13308L13.7165 0L11.5834 3.80907L13.7165 7.61814L9.90739 5.48506ZM28.1909 20.4166L32 18.2835L29.8669 22.0926L32 25.9017L28.1909 23.7686L24.3819 25.9017L26.5149 22.0926L24.3819 18.2835L28.1909 20.4166ZM32 0L29.8669 3.80907L32 7.61814L28.1909 5.48506L24.3819 7.61814L26.5149 3.80907L24.3819 0L28.1909 2.13308L32 0ZM18.8054 16.4247L22.523 12.7071L19.2929 9.47697L15.5753 13.1946L18.8054 16.4247ZM20.3747 8.05999L23.94 11.6253C24.5342 12.189 24.5342 13.1794 23.94 13.7736L6.15927 31.5543C5.56505 32.1486 4.57469 32.1486 4.01095 31.5543L0.445661 27.989C-0.148554 27.4253 -0.148554 26.4349 0.445661 25.8407L18.2264 8.05999C18.8206 7.46578 19.811 7.46578 20.3747 8.05999Z" fill="#535657"/></svg>